<svg xmlns="http://www.w3.org/2000/svg" xmlns:xlink="http://www.w3.org/1999/xlink" width="448" height="442" viewBox="0 0 448 442">
  <defs>
    <linearGradient id="linear-gradient" x1="0.426" y1="0.378" x2="0.555" y2="0.699" gradientUnits="objectBoundingBox">
      <stop offset="0.005" stop-color="#c94a39"/>
      <stop offset="1" stop-color="#bc3f2f"/>
    </linearGradient>
    <clipPath id="clip-Icon_Red_Flat">
      <rect width="448" height="442"/>
    </clipPath>
  </defs>
  <g id="Icon_Red_Flat" data-name="Icon (Red) – Flat" clip-path="url(#clip-Icon_Red_Flat)">
    <g id="Group_11" data-name="Group 11" transform="translate(-63.843 -5.786)">
      <g id="Group_10" data-name="Group 10" transform="translate(92.843 52.786)">
        <path id="Path_39" data-name="Path 39" d="M437.406,282.164a150.477,150.477,0,0,1-19.452,46.911l23.65,40.373-32.093,32.093L369.2,377.891A148.147,148.147,0,0,1,341.841,391.4V342.2a108.727,108.727,0,0,0,54.843-96.86c-1.179-56.417-46.778-103.56-103.137-106.487A108.936,108.936,0,0,0,233.629,342.2v49.2a148.278,148.278,0,0,1-27.349-13.512l-40.315,23.65-32.093-32.093,23.644-40.373a151.875,151.875,0,0,1-19.452-46.911L92.843,270.341v-45.39l45.222-11.822a152.138,152.138,0,0,1,19.452-46.853L133.872,125.9,165.965,93.81l40.373,23.644A151.956,151.956,0,0,1,253.25,98l11.77-45.216h45.437L322.226,98h.052a151.723,151.723,0,0,1,46.859,19.452L409.511,93.81,441.6,125.9l-23.65,40.373a151.466,151.466,0,0,1,19.452,46.853l45.222,11.822v45.39Z" transform="translate(-92.843 -52.786)" fill="#a02d1d"/>
        <path id="Path_40" data-name="Path 40" d="M364.578,367.012l-2.8,1.765a141.733,141.733,0,0,1-19,10.045v-38.01a114.419,114.419,0,1,0-119.1,0v38.01a142.086,142.086,0,0,1-19-10.045l-2.8-1.765L162.323,390.2l-26.135-26.141,23.192-39.589-1.794-2.863a146.389,146.389,0,0,1-18.72-45.169l-.737-3.217-44.345-11.6V224.657l44.345-11.59.726-3.176a147.125,147.125,0,0,1,18.767-45.222l1.759-2.8-23.192-39.589,26.141-26.141,39.6,23.186,2.851-1.788a146.022,146.022,0,0,1,45.175-18.72l3.223-.737,11.544-44.351h37.017L313.5,98.951h3.641a145.809,145.809,0,0,1,44.583,18.616l2.8,1.754,39.6-23.186,26.141,26.141-23.192,39.589,1.759,2.8a146.183,146.183,0,0,1,18.755,45.169l.737,3.223,44.345,11.6v36.971l-44.357,11.6-.732,3.234a144.845,144.845,0,0,1-18.749,45.216l-1.759,2.8,23.192,39.589L404.121,390.2Z" transform="translate(-88.33 -48.282)" fill="url(#linear-gradient)"/>
        <path id="Path_41" data-name="Path 41" d="M137.342,120.463,160.51,97.294l39.206,22.959,4.25-2.665A142.866,142.866,0,0,1,248.3,99.21l4.837-1.1L264.57,54.192h32.8l11.77,45.228h5.435a143.233,143.233,0,0,1,43.445,18.2l4.2,2.636,39.206-22.959,23.168,23.168-22.959,39.194,2.636,4.2a143.514,143.514,0,0,1,18.4,44.333l1.1,4.831L467.69,224.5v32.767l-43.927,11.485-1.1,4.849a142.133,142.133,0,0,1-18.4,44.362l-2.636,4.2,22.959,39.2-23.162,23.163-39.16-22.965-4.2,2.648a137.672,137.672,0,0,1-14.824,8.123V340.074a117.142,117.142,0,1,0-124.551,0v32.267a138.782,138.782,0,0,1-14.824-8.123l-4.2-2.648L160.51,384.535l-23.168-23.163,22.965-39.2-2.671-4.262a143.5,143.5,0,0,1-18.372-44.327l-1.1-4.831-43.909-11.48V224.5l43.909-11.48,1.092-4.779a144.207,144.207,0,0,1,18.418-44.386l2.636-4.2" transform="translate(-86.075 -46.028)" fill="#c64232"/>
        <path id="Path_42" data-name="Path 42" d="M278.277,149.763a83.044,83.044,0,0,1-50.947,76.6v73.61c-3.052.659-6.139,1.224-9.553,1.736a155.208,155.208,0,0,1-54.737-1.736v-73.61a83.067,83.067,0,0,1,0-153.207v95.129l32.145,18.581,32.145-18.581V73.157A83.046,83.046,0,0,1,278.277,149.763Z" transform="translate(-0.292 45.129)" fill="#a02d1d"/>
        <path id="Path_43" data-name="Path 43" d="M188.406,284.042a145.823,145.823,0,0,1-23.97-1.968V209.781l-3.258-1.359c-24.295-10.167-41.6-30.775-46.278-55.128a75.063,75.063,0,0,1,33.19-77.82V161.86l40.315,23.3,40.321-23.3V75.475a75.059,75.059,0,0,1,33.185,77.82c-4.68,24.353-21.978,44.96-46.273,55.128l-3.258,1.359v72.292A145.893,145.893,0,0,1,188.406,284.042Z" transform="translate(6.487 56.271)" fill="#c64232"/>
      </g>
    </g>
  </g>
</svg>
